<svg xmlns="http://www.w3.org/2000/svg" viewBox="0 0 800 600">
  <!-- Background -->
  <rect width="800" height="600" fill="#100f0d"/>

  <!-- Nav bar -->
  <rect width="800" height="44" fill="#161513"/>
  <line x1="0" y1="44" x2="800" y2="44" stroke="#f4f2ee" stroke-opacity="0.10" stroke-width="1"/>
  <text x="20" y="28" font-family="Georgia, serif" font-size="15" fill="#f4f2ee" font-style="italic">Habita</text>
  <text x="92" y="27" font-family="monospace" font-size="10" fill="#c8c4bc">Dashboard</text>
  <text x="175" y="27" font-family="monospace" font-size="10" fill="#5f5c55">Habitaciones</text>
  <text x="272" y="27" font-family="monospace" font-size="10" fill="#5f5c55">Inquilinos</text>
  <text x="352" y="27" font-family="monospace" font-size="10" fill="#5f5c55">Contratos</text>
  <text x="432" y="27" font-family="monospace" font-size="10" fill="#5f5c55">Pagos</text>
  <text x="704" y="27" font-family="monospace" font-size="9" fill="#5f5c55">Edificio Central</text>

  <!-- Metric cards row -->
  <!-- Card 1: Ocupadas -->
  <rect x="20" y="62" width="230" height="68" rx="3" fill="#161513" stroke="#7fd6a0" stroke-opacity="0.25" stroke-width="1"/>
  <rect x="20" y="62" width="4" height="68" rx="2" fill="#7fd6a0"/>
  <text x="36" y="80" font-family="monospace" font-size="8" fill="#8f8b82">HABITACIONES OCUPADAS</text>
  <text x="36" y="108" font-family="Georgia, serif" font-size="26" fill="#f4f2ee">10</text>
  <text x="80" y="108" font-family="Georgia, serif" font-size="16" fill="#5f5c55">/ 12</text>
  <text x="36" y="122" font-family="monospace" font-size="8" fill="#7fd6a0">83% de ocupación</text>

  <!-- Card 2: Vacantes -->
  <rect x="262" y="62" width="230" height="68" rx="3" fill="#161513" stroke="#f4f2ee" stroke-opacity="0.10" stroke-width="1"/>
  <rect x="262" y="62" width="4" height="68" rx="2" fill="#5f5c55"/>
  <text x="278" y="80" font-family="monospace" font-size="8" fill="#8f8b82">VACANTES</text>
  <text x="278" y="108" font-family="Georgia, serif" font-size="26" fill="#f4f2ee">2</text>
  <text x="278" y="122" font-family="monospace" font-size="8" fill="#8f8b82">disponibles ahora</text>

  <!-- Card 3: En mora -->
  <rect x="504" y="62" width="272" height="68" rx="3" fill="#161513" stroke="#e07070" stroke-opacity="0.22" stroke-width="1"/>
  <rect x="504" y="62" width="4" height="68" rx="2" fill="#e07070"/>
  <text x="520" y="80" font-family="monospace" font-size="8" fill="#8f8b82">PAGOS EN MORA</text>
  <text x="520" y="108" font-family="Georgia, serif" font-size="26" fill="#f4f2ee">1</text>
  <text x="520" y="122" font-family="monospace" font-size="8" fill="#e07070">1 inquilino · ₲ 480.000</text>

  <!-- Rooms grid (left panel) -->
  <text x="20" y="156" font-family="monospace" font-size="9" fill="#8f8b82" letter-spacing="1">HABITACIONES</text>
  <line x1="20" y1="164" x2="390" y2="164" stroke="#f4f2ee" stroke-opacity="0.10" stroke-width="1"/>

  <!-- 2 columns x 6 rows = 12 rooms, cards h=58, gap=8, starting y=174 -->
  <!-- col1: x=20, col2: x=208 -->

  <!-- Row 1 -->
  <rect x="20" y="174" width="182" height="54" rx="3" fill="#161513" stroke="#7fd6a0" stroke-opacity="0.20" stroke-width="1"/>
  <text x="32" y="192" font-family="monospace" font-size="9" fill="#5f5c55">101</text>
  <text x="32" y="209" font-family="monospace" font-size="10" fill="#c8c4bc">M. González</text>
  <rect x="120" y="198" width="54" height="15" rx="7" fill="#7fd6a0" fill-opacity="0.14"/>
  <text x="147" y="209" font-family="monospace" font-size="8" fill="#7fd6a0" text-anchor="middle">al día</text>

  <rect x="208" y="174" width="182" height="54" rx="3" fill="#161513" stroke="#7fd6a0" stroke-opacity="0.20" stroke-width="1"/>
  <text x="220" y="192" font-family="monospace" font-size="9" fill="#5f5c55">102</text>
  <text x="220" y="209" font-family="monospace" font-size="10" fill="#c8c4bc">R. Pérez</text>
  <rect x="308" y="198" width="54" height="15" rx="7" fill="#7fd6a0" fill-opacity="0.14"/>
  <text x="335" y="209" font-family="monospace" font-size="8" fill="#7fd6a0" text-anchor="middle">al día</text>

  <!-- Row 2 -->
  <rect x="20" y="236" width="182" height="54" rx="3" fill="#161513" stroke="#e07070" stroke-opacity="0.25" stroke-width="1"/>
  <text x="32" y="254" font-family="monospace" font-size="9" fill="#5f5c55">103</text>
  <text x="32" y="271" font-family="monospace" font-size="10" fill="#c8c4bc">J. Rodríguez</text>
  <rect x="120" y="260" width="54" height="15" rx="7" fill="#e07070" fill-opacity="0.14"/>
  <text x="147" y="271" font-family="monospace" font-size="8" fill="#e07070" text-anchor="middle">mora</text>

  <rect x="208" y="236" width="182" height="54" rx="3" fill="#161513" stroke="#7fd6a0" stroke-opacity="0.20" stroke-width="1"/>
  <text x="220" y="254" font-family="monospace" font-size="9" fill="#5f5c55">104</text>
  <text x="220" y="271" font-family="monospace" font-size="10" fill="#c8c4bc">A. Martínez</text>
  <rect x="308" y="260" width="54" height="15" rx="7" fill="#7fd6a0" fill-opacity="0.14"/>
  <text x="335" y="271" font-family="monospace" font-size="8" fill="#7fd6a0" text-anchor="middle">al día</text>

  <!-- Row 3 -->
  <rect x="20" y="298" width="182" height="54" rx="3" fill="#161513" stroke="#d4a664" stroke-opacity="0.22" stroke-width="1"/>
  <text x="32" y="316" font-family="monospace" font-size="9" fill="#5f5c55">105</text>
  <text x="32" y="333" font-family="monospace" font-size="10" fill="#c8c4bc">C. López</text>
  <rect x="100" y="322" width="72" height="15" rx="7" fill="#d4a664" fill-opacity="0.14"/>
  <text x="136" y="333" font-family="monospace" font-size="8" fill="#d4a664" text-anchor="middle">pendiente</text>

  <rect x="208" y="298" width="182" height="54" rx="3" fill="#161513" stroke="#7fd6a0" stroke-opacity="0.20" stroke-width="1"/>
  <text x="220" y="316" font-family="monospace" font-size="9" fill="#5f5c55">106</text>
  <text x="220" y="333" font-family="monospace" font-size="10" fill="#c8c4bc">F. Torres</text>
  <rect x="308" y="322" width="54" height="15" rx="7" fill="#7fd6a0" fill-opacity="0.14"/>
  <text x="335" y="333" font-family="monospace" font-size="8" fill="#7fd6a0" text-anchor="middle">al día</text>

  <!-- Row 4 -->
  <rect x="20" y="360" width="182" height="54" rx="3" fill="#161513" stroke="#7fd6a0" stroke-opacity="0.20" stroke-width="1"/>
  <text x="32" y="378" font-family="monospace" font-size="9" fill="#5f5c55">201</text>
  <text x="32" y="395" font-family="monospace" font-size="10" fill="#c8c4bc">S. Díaz</text>
  <rect x="120" y="384" width="54" height="15" rx="7" fill="#7fd6a0" fill-opacity="0.14"/>
  <text x="147" y="395" font-family="monospace" font-size="8" fill="#7fd6a0" text-anchor="middle">al día</text>

  <rect x="208" y="360" width="182" height="54" rx="3" fill="#1a1916" stroke="#f4f2ee" stroke-opacity="0.07" stroke-width="1"/>
  <text x="220" y="378" font-family="monospace" font-size="9" fill="#5f5c55">202</text>
  <text x="220" y="395" font-family="monospace" font-size="9" fill="#5f5c55">Vacante</text>
  <rect x="308" y="384" width="54" height="15" rx="7" fill="#f4f2ee" fill-opacity="0.04"/>
  <text x="335" y="395" font-family="monospace" font-size="8" fill="#5f5c55" text-anchor="middle">libre</text>

  <!-- Row 5 -->
  <rect x="20" y="422" width="182" height="54" rx="3" fill="#161513" stroke="#7fd6a0" stroke-opacity="0.20" stroke-width="1"/>
  <text x="32" y="440" font-family="monospace" font-size="9" fill="#5f5c55">203</text>
  <text x="32" y="457" font-family="monospace" font-size="10" fill="#c8c4bc">L. Fernández</text>
  <rect x="120" y="446" width="54" height="15" rx="7" fill="#7fd6a0" fill-opacity="0.14"/>
  <text x="147" y="457" font-family="monospace" font-size="8" fill="#7fd6a0" text-anchor="middle">al día</text>

  <rect x="208" y="422" width="182" height="54" rx="3" fill="#1a1916" stroke="#f4f2ee" stroke-opacity="0.07" stroke-width="1"/>
  <text x="220" y="440" font-family="monospace" font-size="9" fill="#5f5c55">204</text>
  <text x="220" y="457" font-family="monospace" font-size="9" fill="#5f5c55">Vacante</text>
  <rect x="308" y="446" width="54" height="15" rx="7" fill="#f4f2ee" fill-opacity="0.04"/>
  <text x="335" y="457" font-family="monospace" font-size="8" fill="#5f5c55" text-anchor="middle">libre</text>

  <!-- Payments panel (right) -->
  <text x="412" y="156" font-family="monospace" font-size="9" fill="#8f8b82" letter-spacing="1">PAGOS RECIENTES</text>
  <line x1="412" y1="164" x2="776" y2="164" stroke="#f4f2ee" stroke-opacity="0.10" stroke-width="1"/>

  <!-- Table header -->
  <rect x="412" y="164" width="364" height="24" fill="#f4f2ee" fill-opacity="0.03"/>
  <text x="420" y="180" font-family="monospace" font-size="8" fill="#5f5c55">INQUILINO</text>
  <text x="560" y="180" font-family="monospace" font-size="8" fill="#5f5c55">MONTO</text>
  <text x="660" y="180" font-family="monospace" font-size="8" fill="#5f5c55">ESTADO</text>

  <!-- Payment rows -->
  <line x1="412" y1="188" x2="776" y2="188" stroke="#f4f2ee" stroke-opacity="0.06" stroke-width="1"/>
  <text x="420" y="204" font-family="monospace" font-size="10" fill="#c8c4bc">M. González</text>
  <text x="420" y="216" font-family="monospace" font-size="8" fill="#5f5c55">Hab. 101 · jun. 2026</text>
  <text x="560" y="208" font-family="monospace" font-size="10" fill="#f4f2ee">₲ 480.000</text>
  <rect x="655" y="198" width="54" height="16" rx="8" fill="#7fd6a0" fill-opacity="0.14"/>
  <text x="682" y="210" font-family="monospace" font-size="8" fill="#7fd6a0" text-anchor="middle">pagado</text>

  <line x1="412" y1="226" x2="776" y2="226" stroke="#f4f2ee" stroke-opacity="0.06" stroke-width="1"/>
  <text x="420" y="242" font-family="monospace" font-size="10" fill="#c8c4bc">J. Rodríguez</text>
  <text x="420" y="254" font-family="monospace" font-size="8" fill="#e07070">Hab. 103 · may. 2026</text>
  <text x="560" y="246" font-family="monospace" font-size="10" fill="#f4f2ee">₲ 480.000</text>
  <rect x="655" y="236" width="54" height="16" rx="8" fill="#e07070" fill-opacity="0.14"/>
  <text x="682" y="248" font-family="monospace" font-size="8" fill="#e07070" text-anchor="middle">vencido</text>

  <line x1="412" y1="264" x2="776" y2="264" stroke="#f4f2ee" stroke-opacity="0.06" stroke-width="1"/>
  <text x="420" y="280" font-family="monospace" font-size="10" fill="#c8c4bc">R. Pérez</text>
  <text x="420" y="292" font-family="monospace" font-size="8" fill="#5f5c55">Hab. 102 · jun. 2026</text>
  <text x="560" y="284" font-family="monospace" font-size="10" fill="#f4f2ee">₲ 480.000</text>
  <rect x="655" y="274" width="54" height="16" rx="8" fill="#7fd6a0" fill-opacity="0.14"/>
  <text x="682" y="286" font-family="monospace" font-size="8" fill="#7fd6a0" text-anchor="middle">pagado</text>

  <line x1="412" y1="302" x2="776" y2="302" stroke="#f4f2ee" stroke-opacity="0.06" stroke-width="1"/>
  <text x="420" y="318" font-family="monospace" font-size="10" fill="#c8c4bc">C. López</text>
  <text x="420" y="330" font-family="monospace" font-size="8" fill="#5f5c55">Hab. 105 · jun. 2026</text>
  <text x="560" y="322" font-family="monospace" font-size="10" fill="#f4f2ee">₲ 480.000</text>
  <rect x="655" y="312" width="70" height="16" rx="8" fill="#d4a664" fill-opacity="0.14"/>
  <text x="690" y="324" font-family="monospace" font-size="8" fill="#d4a664" text-anchor="middle">pendiente</text>

  <line x1="412" y1="340" x2="776" y2="340" stroke="#f4f2ee" stroke-opacity="0.06" stroke-width="1"/>
  <text x="420" y="356" font-family="monospace" font-size="10" fill="#c8c4bc">A. Martínez</text>
  <text x="420" y="368" font-family="monospace" font-size="8" fill="#5f5c55">Hab. 104 · jun. 2026</text>
  <text x="560" y="360" font-family="monospace" font-size="10" fill="#f4f2ee">₲ 480.000</text>
  <rect x="655" y="350" width="54" height="16" rx="8" fill="#7fd6a0" fill-opacity="0.14"/>
  <text x="682" y="362" font-family="monospace" font-size="8" fill="#7fd6a0" text-anchor="middle">pagado</text>
  <line x1="412" y1="378" x2="776" y2="378" stroke="#f4f2ee" stroke-opacity="0.06" stroke-width="1"/>

  <!-- Monthly summary -->
  <text x="412" y="406" font-family="monospace" font-size="9" fill="#8f8b82" letter-spacing="1">RESUMEN · JUNIO 2026</text>
  <line x1="412" y1="414" x2="776" y2="414" stroke="#f4f2ee" stroke-opacity="0.10" stroke-width="1"/>

  <text x="420" y="434" font-family="monospace" font-size="10" fill="#8f8b82">Cobrado</text>
  <text x="600" y="434" font-family="Georgia, serif" font-size="16" fill="#7fd6a0">₲ 4.320.000</text>

  <text x="420" y="458" font-family="monospace" font-size="10" fill="#8f8b82">Pendiente</text>
  <text x="600" y="458" font-family="Georgia, serif" font-size="16" fill="#d4a664">₲ 480.000</text>

  <text x="420" y="482" font-family="monospace" font-size="10" fill="#8f8b82">Mora</text>
  <text x="600" y="482" font-family="Georgia, serif" font-size="16" fill="#e07070">₲ 480.000</text>

  <!-- Divider -->
  <line x1="420" y1="494" x2="770" y2="494" stroke="#f4f2ee" stroke-opacity="0.07" stroke-width="1"/>
  <text x="420" y="512" font-family="monospace" font-size="10" fill="#8f8b82">Total esperado</text>
  <text x="600" y="512" font-family="Georgia, serif" font-size="16" fill="#f4f2ee">₲ 5.760.000</text>

  <!-- Bottom: contract quick actions -->
  <text x="20" y="508" font-family="monospace" font-size="9" fill="#8f8b82" letter-spacing="1">CONTRATOS POR VENCER</text>
  <line x1="20" y1="516" x2="390" y2="516" stroke="#f4f2ee" stroke-opacity="0.10" stroke-width="1"/>

  <text x="20" y="534" font-family="monospace" font-size="10" fill="#c8c4bc">F. Torres · Hab. 106</text>
  <text x="240" y="534" font-family="monospace" font-size="9" fill="#d4a664">vence en 12 días</text>

  <text x="20" y="554" font-family="monospace" font-size="10" fill="#c8c4bc">L. Fernández · Hab. 203</text>
  <text x="240" y="554" font-family="monospace" font-size="9" fill="#8f8b82">vence en 30 días</text>

  <!-- Status bar -->
  <rect x="0" y="580" width="800" height="20" fill="#161513"/>
  <line x1="0" y1="580" x2="800" y2="580" stroke="#f4f2ee" stroke-opacity="0.07" stroke-width="1"/>
  <circle cx="12" cy="590" r="4" fill="#7fd6a0"/>
  <text x="22" y="594" font-family="monospace" font-size="8" fill="#5f5c55">edificio central · 10 / 12 ocupadas · 1 pago en mora · token válido</text>
</svg>
