<svg xmlns="http://www.w3.org/2000/svg" viewBox="0 0 800 600">
  <!-- Background -->
  <rect width="800" height="600" fill="#100f0d"/>

  <!-- Nav bar -->
  <rect width="800" height="44" fill="#161513"/>
  <line x1="0" y1="44" x2="800" y2="44" stroke="#f4f2ee" stroke-opacity="0.10" stroke-width="1"/>
  <text x="20" y="28" font-family="Georgia, serif" font-size="15" fill="#f4f2ee" font-style="italic">Kairos</text>
  <text x="92" y="27" font-family="monospace" font-size="10" fill="#c8c4bc">Dashboard</text>
  <text x="175" y="27" font-family="monospace" font-size="10" fill="#5f5c55">Ventas</text>
  <text x="230" y="27" font-family="monospace" font-size="10" fill="#5f5c55">Inventario</text>
  <text x="308" y="27" font-family="monospace" font-size="10" fill="#5f5c55">Reportes</text>
  <text x="374" y="27" font-family="monospace" font-size="10" fill="#5f5c55">Usuarios</text>
  <circle cx="775" cy="22" r="12" fill="#1a1916" stroke="#f4f2ee" stroke-opacity="0.12" stroke-width="1"/>
  <text x="775" y="26" font-family="monospace" font-size="9" fill="#8f8b82" text-anchor="middle">IO</text>

  <!-- Sidebar -->
  <rect x="0" y="44" width="158" height="556" fill="#161513"/>
  <line x1="158" y1="44" x2="158" y2="600" stroke="#f4f2ee" stroke-opacity="0.10" stroke-width="1"/>

  <!-- Sidebar: active item -->
  <rect x="8" y="62" width="142" height="28" rx="3" fill="#f4f2ee" fill-opacity="0.06"/>
  <rect x="8" y="62" width="3" height="28" rx="1.5" fill="#f4f2ee"/>
  <text x="22" y="81" font-family="monospace" font-size="11" fill="#f4f2ee">Dashboard</text>

  <text x="22" y="116" font-family="monospace" font-size="11" fill="#5f5c55">Ventas</text>
  <text x="22" y="144" font-family="monospace" font-size="11" fill="#5f5c55">Inventario</text>
  <text x="22" y="172" font-family="monospace" font-size="11" fill="#5f5c55">Clientes</text>
  <text x="22" y="200" font-family="monospace" font-size="11" fill="#5f5c55">Reportes</text>
  <text x="22" y="228" font-family="monospace" font-size="11" fill="#5f5c55">Usuarios</text>

  <line x1="16" y1="248" x2="142" y2="248" stroke="#f4f2ee" stroke-opacity="0.07" stroke-width="1"/>
  <text x="22" y="268" font-family="monospace" font-size="9" fill="#5f5c55">Administrador</text>

  <!-- Main content area -->
  <text x="178" y="77" font-family="Georgia, serif" font-size="20" fill="#f4f2ee">Dashboard</text>
  <text x="178" y="96" font-family="monospace" font-size="9" fill="#5f5c55">Resumen operativo · martes 16 jun. 2026</text>

  <!-- Stat cards (y=110, h=70) -->
  <rect x="178" y="110" width="138" height="70" rx="3" fill="#161513" stroke="#f4f2ee" stroke-opacity="0.10" stroke-width="1"/>
  <text x="190" y="129" font-family="monospace" font-size="8" fill="#8f8b82">VENTAS HOY</text>
  <text x="190" y="155" font-family="Georgia, serif" font-size="22" fill="#f4f2ee">₲ 4.2M</text>
  <text x="190" y="172" font-family="monospace" font-size="8" fill="#7fd6a0">↑ 12% vs ayer</text>

  <rect x="326" y="110" width="138" height="70" rx="3" fill="#161513" stroke="#f4f2ee" stroke-opacity="0.10" stroke-width="1"/>
  <text x="338" y="129" font-family="monospace" font-size="8" fill="#8f8b82">ÓRDENES</text>
  <text x="338" y="155" font-family="Georgia, serif" font-size="22" fill="#f4f2ee">38</text>
  <text x="338" y="172" font-family="monospace" font-size="8" fill="#7fd6a0">↑ 5 nuevas</text>

  <rect x="474" y="110" width="138" height="70" rx="3" fill="#161513" stroke="#f4f2ee" stroke-opacity="0.10" stroke-width="1"/>
  <text x="486" y="129" font-family="monospace" font-size="8" fill="#8f8b82">EN STOCK</text>
  <text x="486" y="155" font-family="Georgia, serif" font-size="22" fill="#f4f2ee">124</text>
  <text x="486" y="172" font-family="monospace" font-size="8" fill="#8f8b82">productos</text>

  <rect x="622" y="110" width="152" height="70" rx="3" fill="#161513" stroke="#f4f2ee" stroke-opacity="0.10" stroke-width="1"/>
  <text x="634" y="129" font-family="monospace" font-size="8" fill="#8f8b82">CLIENTES</text>
  <text x="634" y="155" font-family="Georgia, serif" font-size="22" fill="#f4f2ee">89</text>
  <text x="634" y="172" font-family="monospace" font-size="8" fill="#8f8b82">registrados</text>

  <!-- Sales table section -->
  <text x="178" y="207" font-family="monospace" font-size="9" fill="#8f8b82" letter-spacing="1">ÚLTIMAS VENTAS</text>
  <line x1="178" y1="215" x2="776" y2="215" stroke="#f4f2ee" stroke-opacity="0.10" stroke-width="1"/>

  <!-- Table header -->
  <rect x="178" y="215" width="598" height="25" fill="#f4f2ee" fill-opacity="0.03"/>
  <text x="190" y="232" font-family="monospace" font-size="8" fill="#5f5c55">CLIENTE</text>
  <text x="358" y="232" font-family="monospace" font-size="8" fill="#5f5c55">PRODUCTO</text>
  <text x="516" y="232" font-family="monospace" font-size="8" fill="#5f5c55">MONTO</text>
  <text x="638" y="232" font-family="monospace" font-size="8" fill="#5f5c55">ESTADO</text>

  <!-- Row 1 -->
  <line x1="178" y1="240" x2="776" y2="240" stroke="#f4f2ee" stroke-opacity="0.06" stroke-width="1"/>
  <text x="190" y="257" font-family="monospace" font-size="10" fill="#c8c4bc">Farmacia Génesis</text>
  <text x="358" y="257" font-family="monospace" font-size="10" fill="#8f8b82">Medicamentos</text>
  <text x="516" y="257" font-family="monospace" font-size="10" fill="#f4f2ee">₲ 820.000</text>
  <rect x="636" y="247" width="54" height="16" rx="8" fill="#7fd6a0" fill-opacity="0.14"/>
  <text x="663" y="259" font-family="monospace" font-size="8" fill="#7fd6a0" text-anchor="middle">pagado</text>

  <!-- Row 2 -->
  <line x1="178" y1="266" x2="776" y2="266" stroke="#f4f2ee" stroke-opacity="0.06" stroke-width="1"/>
  <text x="190" y="283" font-family="monospace" font-size="10" fill="#c8c4bc">Distribuidora Sur</text>
  <text x="358" y="283" font-family="monospace" font-size="10" fill="#8f8b82">Insumos varios</text>
  <text x="516" y="283" font-family="monospace" font-size="10" fill="#f4f2ee">₲ 1.240.000</text>
  <rect x="636" y="273" width="62" height="16" rx="8" fill="#f4f2ee" fill-opacity="0.06"/>
  <text x="667" y="285" font-family="monospace" font-size="8" fill="#8f8b82" text-anchor="middle">pendiente</text>

  <!-- Row 3 -->
  <line x1="178" y1="292" x2="776" y2="292" stroke="#f4f2ee" stroke-opacity="0.06" stroke-width="1"/>
  <text x="190" y="309" font-family="monospace" font-size="10" fill="#c8c4bc">Construcciones SA</text>
  <text x="358" y="309" font-family="monospace" font-size="10" fill="#8f8b82">Materiales</text>
  <text x="516" y="309" font-family="monospace" font-size="10" fill="#f4f2ee">₲ 3.100.000</text>
  <rect x="636" y="299" width="54" height="16" rx="8" fill="#7fd6a0" fill-opacity="0.14"/>
  <text x="663" y="311" font-family="monospace" font-size="8" fill="#7fd6a0" text-anchor="middle">pagado</text>

  <!-- Row 4 -->
  <line x1="178" y1="318" x2="776" y2="318" stroke="#f4f2ee" stroke-opacity="0.06" stroke-width="1"/>
  <text x="190" y="335" font-family="monospace" font-size="10" fill="#c8c4bc">Agro Techno</text>
  <text x="358" y="335" font-family="monospace" font-size="10" fill="#8f8b82">Agroquímicos</text>
  <text x="516" y="335" font-family="monospace" font-size="10" fill="#f4f2ee">₲ 560.000</text>
  <rect x="636" y="325" width="54" height="16" rx="8" fill="#d4a664" fill-opacity="0.16"/>
  <text x="663" y="337" font-family="monospace" font-size="8" fill="#d4a664" text-anchor="middle">parcial</text>

  <!-- Row 5 -->
  <line x1="178" y1="344" x2="776" y2="344" stroke="#f4f2ee" stroke-opacity="0.06" stroke-width="1"/>
  <text x="190" y="361" font-family="monospace" font-size="10" fill="#c8c4bc">Supermercados Plaza</text>
  <text x="358" y="361" font-family="monospace" font-size="10" fill="#8f8b82">Alimentos secos</text>
  <text x="516" y="361" font-family="monospace" font-size="10" fill="#f4f2ee">₲ 2.800.000</text>
  <rect x="636" y="351" width="54" height="16" rx="8" fill="#7fd6a0" fill-opacity="0.14"/>
  <text x="663" y="363" font-family="monospace" font-size="8" fill="#7fd6a0" text-anchor="middle">pagado</text>
  <line x1="178" y1="370" x2="776" y2="370" stroke="#f4f2ee" stroke-opacity="0.06" stroke-width="1"/>

  <!-- Bottom: Stock crítico (left) + Bar chart (right) -->
  <text x="178" y="398" font-family="monospace" font-size="9" fill="#8f8b82" letter-spacing="1">STOCK CRÍTICO</text>
  <line x1="178" y1="406" x2="470" y2="406" stroke="#f4f2ee" stroke-opacity="0.10" stroke-width="1"/>

  <text x="190" y="426" font-family="monospace" font-size="10" fill="#c8c4bc">Paracetamol 500mg</text>
  <text x="378" y="426" font-family="monospace" font-size="10" fill="#d4a664">8 unid.</text>

  <text x="190" y="450" font-family="monospace" font-size="10" fill="#c8c4bc">Alcohol etílico 96°</text>
  <text x="378" y="450" font-family="monospace" font-size="10" fill="#d4a664">3 unid.</text>

  <text x="190" y="474" font-family="monospace" font-size="10" fill="#c8c4bc">Guantes descartables</text>
  <text x="378" y="474" font-family="monospace" font-size="10" fill="#e07070">sin stock</text>

  <text x="190" y="498" font-family="monospace" font-size="10" fill="#c8c4bc">Ibuprofeno 400mg</text>
  <text x="378" y="498" font-family="monospace" font-size="10" fill="#d4a664">12 unid.</text>

  <!-- Bar chart -->
  <text x="494" y="398" font-family="monospace" font-size="9" fill="#8f8b82" letter-spacing="1">VENTAS · ÚLTIMOS 7 DÍAS</text>
  <line x1="494" y1="406" x2="776" y2="406" stroke="#f4f2ee" stroke-opacity="0.10" stroke-width="1"/>

  <!-- chart bottom = 530, top = 420, height = 110 -->
  <!-- 7 bars: w=26, gap=14 → total = 7*26+6*14 = 182+84 = 266. start x=505 -->
  <rect x="505" y="420" width="26" height="110" rx="2" fill="#f4f2ee" fill-opacity="0.04"/>
  <rect x="545" y="420" width="26" height="110" rx="2" fill="#f4f2ee" fill-opacity="0.04"/>
  <rect x="585" y="420" width="26" height="110" rx="2" fill="#f4f2ee" fill-opacity="0.04"/>
  <rect x="625" y="420" width="26" height="110" rx="2" fill="#f4f2ee" fill-opacity="0.04"/>
  <rect x="665" y="420" width="26" height="110" rx="2" fill="#f4f2ee" fill-opacity="0.04"/>
  <rect x="705" y="420" width="26" height="110" rx="2" fill="#f4f2ee" fill-opacity="0.04"/>
  <rect x="745" y="420" width="26" height="110" rx="2" fill="#f4f2ee" fill-opacity="0.04"/>

  <!-- Filled bars (bottom-aligned at y=530) -->
  <rect x="505" y="490" width="26" height="40" rx="2" fill="#f4f2ee" fill-opacity="0.18"/>
  <rect x="545" y="468" width="26" height="62" rx="2" fill="#f4f2ee" fill-opacity="0.18"/>
  <rect x="585" y="474" width="26" height="56" rx="2" fill="#f4f2ee" fill-opacity="0.18"/>
  <rect x="625" y="484" width="26" height="46" rx="2" fill="#f4f2ee" fill-opacity="0.18"/>
  <!-- Friday = today, highlighted -->
  <rect x="665" y="444" width="26" height="86" rx="2" fill="#f4f2ee" fill-opacity="0.75"/>
  <rect x="705" y="480" width="26" height="50" rx="2" fill="#f4f2ee" fill-opacity="0.18"/>
  <rect x="745" y="504" width="26" height="26" rx="2" fill="#f4f2ee" fill-opacity="0.18"/>

  <line x1="494" y1="530" x2="776" y2="530" stroke="#f4f2ee" stroke-opacity="0.07" stroke-width="1"/>

  <text x="518" y="544" font-family="monospace" font-size="8" fill="#5f5c55" text-anchor="middle">L</text>
  <text x="558" y="544" font-family="monospace" font-size="8" fill="#5f5c55" text-anchor="middle">M</text>
  <text x="598" y="544" font-family="monospace" font-size="8" fill="#5f5c55" text-anchor="middle">X</text>
  <text x="638" y="544" font-family="monospace" font-size="8" fill="#5f5c55" text-anchor="middle">J</text>
  <text x="678" y="544" font-family="monospace" font-size="8" fill="#f4f2ee" fill-opacity="0.55" text-anchor="middle">V</text>
  <text x="718" y="544" font-family="monospace" font-size="8" fill="#5f5c55" text-anchor="middle">S</text>
  <text x="758" y="544" font-family="monospace" font-size="8" fill="#5f5c55" text-anchor="middle">D</text>

  <!-- Status bar -->
  <rect x="0" y="580" width="800" height="20" fill="#161513"/>
  <line x1="0" y1="580" x2="800" y2="580" stroke="#f4f2ee" stroke-opacity="0.07" stroke-width="1"/>
  <circle cx="12" cy="590" r="4" fill="#7fd6a0"/>
  <text x="22" y="594" font-family="monospace" font-size="8" fill="#5f5c55">sistema operativo · rol: administrador · última sincronización hace 2 min</text>
</svg>
